<svg id="Layer_1" xmlns="http://www.w3.org/2000/svg" viewBox="0 0 16 16"><style>.st0{fill:#FFFFFF;}</style><path class="st0" d="M2.5.038c-.3 0-.5.3-.5.5v14.9c0 .3.2.5.5.5h11.4c.3 0 .5-.2.5-.5v-9.6c0-.3-.2-.5-.5-.5s-.5.2-.5.5v9.1H3.1v-13.9h6.8v3c0 .3.2.5.5.5H14c.3 0 .5-.2.5-.5 0-.1-.1-.3-.2-.4l-3.6-3.6c-.1-.1-.2-.2-.4-.2H2.5v.2zm8.4 1.8l1.7 1.7h-1.7v-1.7zm-2.5 3.5c-1.8 0-3.2 1.4-3.2 3.2 0 1 .4 1.8 1.1 2.4l-1.5 2.5c-.2.2-.1.6.1.7.2.2.6.1.7-.1 0 0 0-.1.1-.1l1.5-2.5c.4.2.8.2 1.2.2 1.8 0 3.2-1.4 3.2-3.2s-1.4-3.1-3.2-3.1zm0 1.1c1.2 0 2.1.9 2.1 2.1 0 1.2-.9 2.1-2.1 2.1-1.2 0-2.1-.9-2.1-2.1 0-1.2.9-2.1 2.1-2.1z"/></svg>