<svg xmlns="http://www.w3.org/2000/svg" width="28" height="28"><path d="M27.6133392 5.14156775a3.03255007 3.03255007 0 0 1-3.03255008 3.03255007 3.03255007 3.03255007 0 0 1-3.03255007-3.03255007 3.03255007 3.03255007 0 0 1 3.03255007-3.03255007 3.03255007 3.03255007 0 0 1 3.03255007 3.03255007z" class="st0" fill="#f45e43"/><path d="M6.5450966 13.9732048a3.03255007 3.03255007 0 0 1-3.03255007 3.03255007A3.03255007 3.03255007 0 0 1 .47999646 13.9732048a3.03255007 3.03255007 0 0 1 3.03255007-3.03255007A3.03255007 3.03255007 0 0 1 6.5450966 13.9732048z" class="st0" fill="#f63a4d"/><path d="M27.6133392 22.69843658a3.03255007 3.03255007 0 0 1-3.03255008 3.03255007 3.03255007 3.03255007 0 0 1-3.03255007-3.03255007 3.03255007 3.03255007 0 0 1 3.03255007-3.03255007 3.03255007 3.03255007 0 0 1 3.03255007 3.03255007zM16.38758367 8.17411782H3.51254653c-1.67056267 0-3.03255007-1.3619874-3.03255007-3.03255007s1.3619874-3.03255007 3.03255007-3.03255007h12.87503714c1.67056267 0 3.03255007 1.3619874 3.03255007 3.03255007s-1.3619874 3.03255007-3.03255007 3.03255007zM24.47438385 17.00575487H11.59934671c-1.67056267 0-3.03255007-1.3619874-3.03255007-3.03255007s1.3619874-3.03255007 3.03255007-3.03255007h12.87503714c1.67056267 0 3.03255008 1.3619874 3.03255008 3.03255007s-1.3619874 3.03255007-3.03255008 3.03255007zM16.38758367 25.73098665H3.51254653c-1.67056267 0-3.03255007-1.3619874-3.03255007-3.03255007s1.3619874-3.03255007 3.03255007-3.03255007h12.87503714c1.67056267 0 3.03255007 1.3619874 3.03255007 3.03255007s-1.3619874 3.03255007-3.03255007 3.03255007z" class="st0" fill="#f45e43"/></svg>